<svg xmlns="http://www.w3.org/2000/svg" viewBox="0 0 1280 640" width="1280" height="640">
<defs>
  <radialGradient id="halo" cx="50%" cy="50%" r="50%"><stop offset="0%" stop-color="#6a4ff0" stop-opacity="0.32"/><stop offset="100%" stop-color="#6a4ff0" stop-opacity="0"/></radialGradient>
  <radialGradient id="core" cx="38%" cy="34%" r="75%"><stop offset="0%" stop-color="#9d8ffb"/><stop offset="70%" stop-color="#6a4ff0"/><stop offset="100%" stop-color="#5238d6"/></radialGradient>
</defs>
<rect width="1280" height="640" fill="#f4efe4"/>
<line x1="0" y1="0" x2="0" y2="640" stroke="rgba(31,27,22,0.10)" stroke-width="1"/><line x1="28" y1="0" x2="28" y2="640" stroke="rgba(31,27,22,0.10)" stroke-width="1"/><line x1="56" y1="0" x2="56" y2="640" stroke="rgba(31,27,22,0.10)" stroke-width="1"/><line x1="84" y1="0" x2="84" y2="640" stroke="rgba(31,27,22,0.10)" stroke-width="1"/><line x1="112" y1="0" x2="112" y2="640" stroke="rgba(31,27,22,0.10)" stroke-width="1"/><line x1="140" y1="0" x2="140" y2="640" stroke="rgba(31,27,22,0.10)" stroke-width="1"/><line x1="168" y1="0" x2="168" y2="640" stroke="rgba(31,27,22,0.10)" stroke-width="1"/><line x1="196" y1="0" x2="196" y2="640" stroke="rgba(31,27,22,0.10)" stroke-width="1"/><line x1="224" y1="0" x2="224" y2="640" stroke="rgba(31,27,22,0.10)" stroke-width="1"/><line x1="252" y1="0" x2="252" y2="640" stroke="rgba(31,27,22,0.10)" stroke-width="1"/><line x1="280" y1="0" x2="280" y2="640" stroke="rgba(31,27,22,0.10)" stroke-width="1"/><line x1="308" y1="0" x2="308" y2="640" stroke="rgba(31,27,22,0.10)" stroke-width="1"/><line x1="336" y1="0" x2="336" y2="640" stroke="rgba(31,27,22,0.10)" stroke-width="1"/><line x1="364" y1="0" x2="364" y2="640" stroke="rgba(31,27,22,0.10)" stroke-width="1"/><line x1="392" y1="0" x2="392" y2="640" stroke="rgba(31,27,22,0.10)" stroke-width="1"/><line x1="420" y1="0" x2="420" y2="640" stroke="rgba(31,27,22,0.10)" stroke-width="1"/><line x1="448" y1="0" x2="448" y2="640" stroke="rgba(31,27,22,0.10)" stroke-width="1"/><line x1="476" y1="0" x2="476" y2="640" stroke="rgba(31,27,22,0.10)" stroke-width="1"/><line x1="504" y1="0" x2="504" y2="640" stroke="rgba(31,27,22,0.10)" stroke-width="1"/><line x1="532" y1="0" x2="532" y2="640" stroke="rgba(31,27,22,0.10)" stroke-width="1"/><line x1="560" y1="0" x2="560" y2="640" stroke="rgba(31,27,22,0.10)" stroke-width="1"/><line x1="588" y1="0" x2="588" y2="640" stroke="rgba(31,27,22,0.10)" stroke-width="1"/><line x1="616" y1="0" x2="616" y2="640" stroke="rgba(31,27,22,0.10)" stroke-width="1"/><line x1="644" y1="0" x2="644" y2="640" stroke="rgba(31,27,22,0.10)" stroke-width="1"/><line x1="672" y1="0" x2="672" y2="640" stroke="rgba(31,27,22,0.10)" stroke-width="1"/><line x1="700" y1="0" x2="700" y2="640" stroke="rgba(31,27,22,0.10)" stroke-width="1"/><line x1="728" y1="0" x2="728" y2="640" stroke="rgba(31,27,22,0.10)" stroke-width="1"/><line x1="756" y1="0" x2="756" y2="640" stroke="rgba(31,27,22,0.10)" stroke-width="1"/><line x1="784" y1="0" x2="784" y2="640" stroke="rgba(31,27,22,0.10)" stroke-width="1"/><line x1="812" y1="0" x2="812" y2="640" stroke="rgba(31,27,22,0.10)" stroke-width="1"/><line x1="840" y1="0" x2="840" y2="640" stroke="rgba(31,27,22,0.10)" stroke-width="1"/><line x1="868" y1="0" x2="868" y2="640" stroke="rgba(31,27,22,0.10)" stroke-width="1"/><line x1="896" y1="0" x2="896" y2="640" stroke="rgba(31,27,22,0.10)" stroke-width="1"/><line x1="924" y1="0" x2="924" y2="640" stroke="rgba(31,27,22,0.10)" stroke-width="1"/><line x1="952" y1="0" x2="952" y2="640" stroke="rgba(31,27,22,0.10)" stroke-width="1"/><line x1="980" y1="0" x2="980" y2="640" stroke="rgba(31,27,22,0.10)" stroke-width="1"/><line x1="1008" y1="0" x2="1008" y2="640" stroke="rgba(31,27,22,0.10)" stroke-width="1"/><line x1="1036" y1="0" x2="1036" y2="640" stroke="rgba(31,27,22,0.10)" stroke-width="1"/><line x1="1064" y1="0" x2="1064" y2="640" stroke="rgba(31,27,22,0.10)" stroke-width="1"/><line x1="1092" y1="0" x2="1092" y2="640" stroke="rgba(31,27,22,0.10)" stroke-width="1"/><line x1="1120" y1="0" x2="1120" y2="640" stroke="rgba(31,27,22,0.10)" stroke-width="1"/><line x1="1148" y1="0" x2="1148" y2="640" stroke="rgba(31,27,22,0.10)" stroke-width="1"/><line x1="1176" y1="0" x2="1176" y2="640" stroke="rgba(31,27,22,0.10)" stroke-width="1"/><line x1="1204" y1="0" x2="1204" y2="640" stroke="rgba(31,27,22,0.10)" stroke-width="1"/><line x1="1232" y1="0" x2="1232" y2="640" stroke="rgba(31,27,22,0.10)" stroke-width="1"/><line x1="1260" y1="0" x2="1260" y2="640" stroke="rgba(31,27,22,0.10)" stroke-width="1"/><line x1="0" y1="0" x2="1280" y2="0" stroke="rgba(31,27,22,0.10)" stroke-width="1"/><line x1="0" y1="28" x2="1280" y2="28" stroke="rgba(31,27,22,0.10)" stroke-width="1"/><line x1="0" y1="56" x2="1280" y2="56" stroke="rgba(31,27,22,0.10)" stroke-width="1"/><line x1="0" y1="84" x2="1280" y2="84" stroke="rgba(31,27,22,0.10)" stroke-width="1"/><line x1="0" y1="112" x2="1280" y2="112" stroke="rgba(31,27,22,0.10)" stroke-width="1"/><line x1="0" y1="140" x2="1280" y2="140" stroke="rgba(31,27,22,0.10)" stroke-width="1"/><line x1="0" y1="168" x2="1280" y2="168" stroke="rgba(31,27,22,0.10)" stroke-width="1"/><line x1="0" y1="196" x2="1280" y2="196" stroke="rgba(31,27,22,0.10)" stroke-width="1"/><line x1="0" y1="224" x2="1280" y2="224" stroke="rgba(31,27,22,0.10)" stroke-width="1"/><line x1="0" y1="252" x2="1280" y2="252" stroke="rgba(31,27,22,0.10)" stroke-width="1"/><line x1="0" y1="280" x2="1280" y2="280" stroke="rgba(31,27,22,0.10)" stroke-width="1"/><line x1="0" y1="308" x2="1280" y2="308" stroke="rgba(31,27,22,0.10)" stroke-width="1"/><line x1="0" y1="336" x2="1280" y2="336" stroke="rgba(31,27,22,0.10)" stroke-width="1"/><line x1="0" y1="364" x2="1280" y2="364" stroke="rgba(31,27,22,0.10)" stroke-width="1"/><line x1="0" y1="392" x2="1280" y2="392" stroke="rgba(31,27,22,0.10)" stroke-width="1"/><line x1="0" y1="420" x2="1280" y2="420" stroke="rgba(31,27,22,0.10)" stroke-width="1"/><line x1="0" y1="448" x2="1280" y2="448" stroke="rgba(31,27,22,0.10)" stroke-width="1"/><line x1="0" y1="476" x2="1280" y2="476" stroke="rgba(31,27,22,0.10)" stroke-width="1"/><line x1="0" y1="504" x2="1280" y2="504" stroke="rgba(31,27,22,0.10)" stroke-width="1"/><line x1="0" y1="532" x2="1280" y2="532" stroke="rgba(31,27,22,0.10)" stroke-width="1"/><line x1="0" y1="560" x2="1280" y2="560" stroke="rgba(31,27,22,0.10)" stroke-width="1"/><line x1="0" y1="588" x2="1280" y2="588" stroke="rgba(31,27,22,0.10)" stroke-width="1"/><line x1="0" y1="616" x2="1280" y2="616" stroke="rgba(31,27,22,0.10)" stroke-width="1"/>
<text x="56" y="62" font-family="JetBrains Mono, monospace" font-size="18" letter-spacing="4" fill="#6b6357">DOT · FIELD NOTES</text>
<line x1="56" y1="80" x2="1224" y2="80" stroke="rgba(31,27,22,0.22)" stroke-width="1.5"/>
<circle cx="666.0" cy="230.4" r="4.40" fill="#6a4ff0" opacity="0.95"/><circle cx="664.2" cy="243.5" r="4.12" fill="#6a4ff0" opacity="0.84"/><circle cx="655.9" cy="254.7" r="3.90" fill="#6a4ff0" opacity="0.77"/><circle cx="642.5" cy="261.0" r="3.69" fill="#6a4ff0" opacity="0.71"/><circle cx="627.0" cy="260.1" r="3.50" fill="#6a4ff0" opacity="0.65"/><circle cx="613.0" cy="251.4" r="3.31" fill="#6a4ff0" opacity="0.60"/><circle cx="604.3" cy="236.4" r="3.12" fill="#6a4ff0" opacity="0.55"/><circle cx="603.8" cy="218.0" r="2.94" fill="#6a4ff0" opacity="0.51"/><circle cx="612.6" cy="200.7" r="2.77" fill="#6a4ff0" opacity="0.46"/><circle cx="629.5" cy="189.0" r="2.60" fill="#6a4ff0" opacity="0.42"/><circle cx="651.1" cy="186.7" r="2.43" fill="#6a4ff0" opacity="0.38"/><circle cx="672.3" cy="195.4" r="2.26" fill="#6a4ff0" opacity="0.34"/><circle cx="687.6" cy="214.1" r="2.10" fill="#6a4ff0" opacity="0.30"/><circle cx="692.5" cy="239.2" r="1.94" fill="#6a4ff0" opacity="0.27"/><circle cx="684.3" cy="264.9" r="1.78" fill="#6a4ff0" opacity="0.23"/><circle cx="663.9" cy="284.8" r="1.62" fill="#6a4ff0" opacity="0.20"/><circle cx="634.8" cy="292.9" r="1.46" fill="#6a4ff0" opacity="0.16"/><circle cx="603.7" cy="285.9" r="1.31" fill="#6a4ff0" opacity="0.13"/><circle cx="578.4" cy="263.7" r="1.15" fill="#6a4ff0" opacity="0.09"/><circle cx="566.0" cy="230.4" r="1.00" fill="#6a4ff0" opacity="0.06"/><circle cx="614.0" cy="230.4" r="4.40" fill="#6a4ff0" opacity="0.95"/><circle cx="615.8" cy="217.3" r="4.12" fill="#6a4ff0" opacity="0.84"/><circle cx="624.1" cy="206.1" r="3.90" fill="#6a4ff0" opacity="0.77"/><circle cx="637.5" cy="199.8" r="3.69" fill="#6a4ff0" opacity="0.71"/><circle cx="653.0" cy="200.7" r="3.50" fill="#6a4ff0" opacity="0.65"/><circle cx="667.0" cy="209.4" r="3.31" fill="#6a4ff0" opacity="0.60"/><circle cx="675.7" cy="224.4" r="3.12" fill="#6a4ff0" opacity="0.55"/><circle cx="676.2" cy="242.8" r="2.94" fill="#6a4ff0" opacity="0.51"/><circle cx="667.4" cy="260.1" r="2.77" fill="#6a4ff0" opacity="0.46"/><circle cx="650.5" cy="271.8" r="2.60" fill="#6a4ff0" opacity="0.42"/><circle cx="628.9" cy="274.1" r="2.43" fill="#6a4ff0" opacity="0.38"/><circle cx="607.7" cy="265.4" r="2.26" fill="#6a4ff0" opacity="0.34"/><circle cx="592.4" cy="246.7" r="2.10" fill="#6a4ff0" opacity="0.30"/><circle cx="587.5" cy="221.6" r="1.94" fill="#6a4ff0" opacity="0.27"/><circle cx="595.7" cy="195.9" r="1.78" fill="#6a4ff0" opacity="0.23"/><circle cx="616.1" cy="176.0" r="1.62" fill="#6a4ff0" opacity="0.20"/><circle cx="645.2" cy="167.9" r="1.46" fill="#6a4ff0" opacity="0.16"/><circle cx="676.3" cy="174.9" r="1.31" fill="#6a4ff0" opacity="0.13"/><circle cx="701.6" cy="197.1" r="1.15" fill="#6a4ff0" opacity="0.09"/><circle cx="714.0" cy="230.4" r="1.00" fill="#6a4ff0" opacity="0.06"/><circle cx="640.0" cy="230.39999999999998" r="44" fill="url(#halo)"/><circle cx="640.0" cy="230.39999999999998" r="17" fill="url(#core)"/>
<text x="640.0" y="397" text-anchor="middle" font-family="Georgia, 'Times New Roman', serif" font-size="108" font-weight="700" fill="#1f1b16">Dot</text>
<text x="640.0" y="467" text-anchor="middle" font-family="Georgia, serif" font-style="italic" font-size="34" fill="#6b6357">Memory for every AI tool you use.</text>
<text x="640.0" y="525" text-anchor="middle" font-family="JetBrains Mono, monospace" font-size="19" fill="#8a8275">local-first   ·   private   ·   model-agnostic   ·   open source</text>
<g>
  <rect x="548" y="563" width="184" height="40" rx="6" fill="none" stroke="#6a4ff0" stroke-opacity="0.55"/>
  <text x="640.0" y="589" text-anchor="middle" font-family="JetBrains Mono, monospace" font-size="18" fill="#5238d6">v0.1.0-alpha</text>
</g>
<text x="1224" y="600" text-anchor="end" font-family="JetBrains Mono, monospace" font-size="16" fill="#c8612f">✎ remembered locally</text>
</svg>