<svg xmlns="http://www.w3.org/2000/svg" viewBox="0 0 1280 640" width="1280" height="640">
<defs>
  <linearGradient id="bg" x1="0" y1="0" x2="1" y2="1">
    <stop offset="0%" stop-color="#0c0c0e"/><stop offset="55%" stop-color="#0d0b14"/>
    <stop offset="100%" stop-color="#120d20"/>
  </linearGradient>
  <radialGradient id="halo" cx="50%" cy="50%" r="50%">
    <stop offset="0%" stop-color="#7c6af7" stop-opacity="0.40"/>
    <stop offset="100%" stop-color="#7c6af7" stop-opacity="0"/>
  </radialGradient>
  <radialGradient id="core" cx="38%" cy="34%" r="75%">
    <stop offset="0%" stop-color="#9d8ffb"/><stop offset="70%" stop-color="#7c6af7"/>
    <stop offset="100%" stop-color="#5b48e8"/>
  </radialGradient>
  <radialGradient id="vignette" cx="50%" cy="28%" r="75%">
    <stop offset="0%" stop-color="#7c6af7" stop-opacity="0.10"/>
    <stop offset="100%" stop-color="#7c6af7" stop-opacity="0"/>
  </radialGradient>
</defs>
<rect width="1280" height="640" fill="url(#bg)"/>
<rect width="1280" height="640" fill="url(#vignette)"/>
<circle cx="670.0" cy="192.0" r="5.00" fill="#7c6af7" opacity="0.95"/><circle cx="668.4" cy="205.7" r="4.71" fill="#7c6af7" opacity="0.84"/><circle cx="660.7" cy="217.9" r="4.47" fill="#7c6af7" opacity="0.78"/><circle cx="647.8" cy="226.0" r="4.25" fill="#7c6af7" opacity="0.72"/><circle cx="631.8" cy="227.7" r="4.05" fill="#7c6af7" opacity="0.67"/><circle cx="616.0" cy="222.1" r="3.85" fill="#7c6af7" opacity="0.62"/><circle cx="603.5" cy="209.6" r="3.66" fill="#7c6af7" opacity="0.58"/><circle cx="597.4" cy="192.0" r="3.47" fill="#7c6af7" opacity="0.54"/><circle cx="599.6" cy="172.6" r="3.28" fill="#7c6af7" opacity="0.50"/><circle cx="610.6" cy="155.2" r="3.10" fill="#7c6af7" opacity="0.46"/><circle cx="629.0" cy="143.7" r="2.92" fill="#7c6af7" opacity="0.42"/><circle cx="651.6" cy="141.2" r="2.75" fill="#7c6af7" opacity="0.38"/><circle cx="674.1" cy="149.2" r="2.58" fill="#7c6af7" opacity="0.35"/><circle cx="691.9" cy="167.0" r="2.41" fill="#7c6af7" opacity="0.31"/><circle cx="700.5" cy="192.0" r="2.24" fill="#7c6af7" opacity="0.28"/><circle cx="697.3" cy="219.6" r="2.07" fill="#7c6af7" opacity="0.25"/><circle cx="681.7" cy="244.3" r="1.90" fill="#7c6af7" opacity="0.21"/><circle cx="655.7" cy="260.6" r="1.74" fill="#7c6af7" opacity="0.18"/><circle cx="623.5" cy="264.1" r="1.58" fill="#7c6af7" opacity="0.15"/><circle cx="591.5" cy="252.8" r="1.42" fill="#7c6af7" opacity="0.12"/><circle cx="566.3" cy="227.5" r="1.26" fill="#7c6af7" opacity="0.09"/><circle cx="554.0" cy="192.0" r="1.10" fill="#7c6af7" opacity="0.06"/><circle cx="610.0" cy="192.0" r="5.00" fill="#7c6af7" opacity="0.95"/><circle cx="611.6" cy="178.3" r="4.71" fill="#7c6af7" opacity="0.84"/><circle cx="619.3" cy="166.1" r="4.47" fill="#7c6af7" opacity="0.78"/><circle cx="632.2" cy="158.0" r="4.25" fill="#7c6af7" opacity="0.72"/><circle cx="648.2" cy="156.3" r="4.05" fill="#7c6af7" opacity="0.67"/><circle cx="664.0" cy="161.9" r="3.85" fill="#7c6af7" opacity="0.62"/><circle cx="676.5" cy="174.4" r="3.66" fill="#7c6af7" opacity="0.58"/><circle cx="682.6" cy="192.0" r="3.47" fill="#7c6af7" opacity="0.54"/><circle cx="680.4" cy="211.4" r="3.28" fill="#7c6af7" opacity="0.50"/><circle cx="669.4" cy="228.8" r="3.10" fill="#7c6af7" opacity="0.46"/><circle cx="651.0" cy="240.3" r="2.92" fill="#7c6af7" opacity="0.42"/><circle cx="628.4" cy="242.8" r="2.75" fill="#7c6af7" opacity="0.38"/><circle cx="605.9" cy="234.8" r="2.58" fill="#7c6af7" opacity="0.35"/><circle cx="588.1" cy="217.0" r="2.41" fill="#7c6af7" opacity="0.31"/><circle cx="579.5" cy="192.0" r="2.24" fill="#7c6af7" opacity="0.28"/><circle cx="582.7" cy="164.4" r="2.07" fill="#7c6af7" opacity="0.25"/><circle cx="598.3" cy="139.7" r="1.90" fill="#7c6af7" opacity="0.21"/><circle cx="624.3" cy="123.4" r="1.74" fill="#7c6af7" opacity="0.18"/><circle cx="656.5" cy="119.9" r="1.58" fill="#7c6af7" opacity="0.15"/><circle cx="688.5" cy="131.2" r="1.42" fill="#7c6af7" opacity="0.12"/><circle cx="713.7" cy="156.5" r="1.26" fill="#7c6af7" opacity="0.09"/><circle cx="726.0" cy="192.0" r="1.10" fill="#7c6af7" opacity="0.06"/><circle cx="640.0" cy="192.0" r="52" fill="url(#halo)"/><circle cx="640.0" cy="192.0" r="20" fill="url(#core)"/><circle cx="633" cy="185" r="6" fill="#fff" opacity="0.35"/>
<text x="640.0" y="374" text-anchor="middle" font-family="Inter, Arial, sans-serif" font-size="104" font-weight="700" letter-spacing="-3" fill="#f0f0f5">Dot</text>
<text x="640.0" y="448" text-anchor="middle" font-family="Inter, Arial, sans-serif" font-size="33" font-weight="500" fill="#9b9bb0">Memory for every AI tool you use.</text>
<text x="640.0" y="502" text-anchor="middle" font-family="Inter, Arial, sans-serif" font-size="22" font-weight="400" fill="#6a6a7e">Local-first  ·  private  ·  model-agnostic  ·  open source</text>
<g>
  <rect x="550" y="544" width="180" height="40" rx="20" fill="none" stroke="#7c6af7" stroke-opacity="0.5"/>
  <text x="640.0" y="570" text-anchor="middle" font-family="JetBrains Mono, monospace" font-size="18" fill="#9d8ffb">v0.1.0-alpha</text>
</g>
</svg>