<svg xmlns="http://www.w3.org/2000/svg" viewBox="0 0 240 240" width="240" height="240">
  <title>Dot — animated memory spiral</title>
  <defs>
    <radialGradient id="core" cx="38%" cy="34%" r="75%">
      <stop offset="0%" stop-color="#9d8ffb"/>
      <stop offset="70%" stop-color="#7c6af7"/>
      <stop offset="100%" stop-color="#5b48e8"/>
    </radialGradient>
    <radialGradient id="halo" cx="50%" cy="50%" r="50%">
      <stop offset="0%" stop-color="#7c6af7" stop-opacity="0.45"/>
      <stop offset="100%" stop-color="#7c6af7" stop-opacity="0"/>
    </radialGradient>
  </defs>
  <g>
    <animateTransform attributeName="transform" type="rotate"
      from="0 120 120" to="360 120 120" dur="48s" repeatCount="indefinite"/>
    <circle cx="158.00" cy="120.00" r="6.00" fill="#7c6af7" opacity="0.95"/>
    <circle cx="156.75" cy="134.55" r="5.70" fill="#7c6af7" opacity="0.86"/>
    <circle cx="149.98" cy="148.15" r="5.45" fill="#7c6af7" opacity="0.80"/>
    <circle cx="138.21" cy="158.71" r="5.22" fill="#7c6af7" opacity="0.75"/>
    <circle cx="122.79" cy="164.42" r="5.01" fill="#7c6af7" opacity="0.70"/>
    <circle cx="105.69" cy="164.03" r="4.80" fill="#7c6af7" opacity="0.66"/>
    <circle cx="89.30" cy="157.11" r="4.60" fill="#7c6af7" opacity="0.62"/>
    <circle cx="76.10" cy="144.14" r="4.41" fill="#7c6af7" opacity="0.58"/>
    <circle cx="68.29" cy="126.53" r="4.22" fill="#7c6af7" opacity="0.54"/>
    <circle cx="67.48" cy="106.52" r="4.03" fill="#7c6af7" opacity="0.51"/>
    <circle cx="74.37" cy="86.85" r="3.84" fill="#7c6af7" opacity="0.48"/>
    <circle cx="88.56" cy="70.46" r="3.66" fill="#7c6af7" opacity="0.44"/>
    <circle cx="108.56" cy="60.04" r="3.48" fill="#7c6af7" opacity="0.41"/>
    <circle cx="131.90" cy="57.63" r="3.30" fill="#7c6af7" opacity="0.38"/>
    <circle cx="155.40" cy="64.23" r="3.13" fill="#7c6af7" opacity="0.35"/>
    <circle cx="175.59" cy="79.61" r="2.96" fill="#7c6af7" opacity="0.32"/>
    <circle cx="189.24" cy="102.22" r="2.78" fill="#7c6af7" opacity="0.29"/>
    <circle cx="193.78" cy="129.32" r="2.61" fill="#7c6af7" opacity="0.26"/>
    <circle cx="187.79" cy="157.27" r="2.45" fill="#7c6af7" opacity="0.23"/>
    <circle cx="171.30" cy="182.01" r="2.28" fill="#7c6af7" opacity="0.21"/>
    <circle cx="145.87" cy="199.62" r="2.11" fill="#7c6af7" opacity="0.18"/>
    <circle cx="114.53" cy="206.92" r="1.95" fill="#7c6af7" opacity="0.15"/>
    <circle cx="81.42" cy="201.98" r="1.78" fill="#7c6af7" opacity="0.13"/>
    <circle cx="51.29" cy="184.52" r="1.62" fill="#7c6af7" opacity="0.10"/>
    <circle cx="28.84" cy="156.09" r="1.46" fill="#7c6af7" opacity="0.08"/>
    <circle cx="18.00" cy="120.00" r="1.30" fill="#7c6af7" opacity="0.05"/>
    <circle cx="82.00" cy="120.00" r="6.00" fill="#7c6af7" opacity="0.95"/>
    <circle cx="83.25" cy="105.45" r="5.70" fill="#7c6af7" opacity="0.86"/>
    <circle cx="90.02" cy="91.85" r="5.45" fill="#7c6af7" opacity="0.80"/>
    <circle cx="101.79" cy="81.29" r="5.22" fill="#7c6af7" opacity="0.75"/>
    <circle cx="117.21" cy="75.58" r="5.01" fill="#7c6af7" opacity="0.70"/>
    <circle cx="134.31" cy="75.97" r="4.80" fill="#7c6af7" opacity="0.66"/>
    <circle cx="150.70" cy="82.89" r="4.60" fill="#7c6af7" opacity="0.62"/>
    <circle cx="163.90" cy="95.86" r="4.41" fill="#7c6af7" opacity="0.58"/>
    <circle cx="171.71" cy="113.47" r="4.22" fill="#7c6af7" opacity="0.54"/>
    <circle cx="172.52" cy="133.48" r="4.03" fill="#7c6af7" opacity="0.51"/>
    <circle cx="165.63" cy="153.15" r="3.84" fill="#7c6af7" opacity="0.48"/>
    <circle cx="151.44" cy="169.54" r="3.66" fill="#7c6af7" opacity="0.44"/>
    <circle cx="131.44" cy="179.96" r="3.48" fill="#7c6af7" opacity="0.41"/>
    <circle cx="108.10" cy="182.37" r="3.30" fill="#7c6af7" opacity="0.38"/>
    <circle cx="84.60" cy="175.77" r="3.13" fill="#7c6af7" opacity="0.35"/>
    <circle cx="64.41" cy="160.39" r="2.96" fill="#7c6af7" opacity="0.32"/>
    <circle cx="50.76" cy="137.78" r="2.78" fill="#7c6af7" opacity="0.29"/>
    <circle cx="46.22" cy="110.68" r="2.61" fill="#7c6af7" opacity="0.26"/>
    <circle cx="52.21" cy="82.73" r="2.45" fill="#7c6af7" opacity="0.23"/>
    <circle cx="68.70" cy="57.99" r="2.28" fill="#7c6af7" opacity="0.21"/>
    <circle cx="94.13" cy="40.38" r="2.11" fill="#7c6af7" opacity="0.18"/>
    <circle cx="125.47" cy="33.08" r="1.95" fill="#7c6af7" opacity="0.15"/>
    <circle cx="158.58" cy="38.02" r="1.78" fill="#7c6af7" opacity="0.13"/>
    <circle cx="188.71" cy="55.48" r="1.62" fill="#7c6af7" opacity="0.10"/>
    <circle cx="211.16" cy="83.91" r="1.46" fill="#7c6af7" opacity="0.08"/>
    <circle cx="222.00" cy="120.00" r="1.30" fill="#7c6af7" opacity="0.05"/>
  </g>
  <circle cx="120" cy="120" r="52" fill="url(#halo)">
    <animate attributeName="r" values="52;58;52" dur="5s" repeatCount="indefinite"/>
  </circle>
  <circle cx="120" cy="120" r="24" fill="url(#core)">
    <animate attributeName="r" values="24;25.5;24" dur="5s" repeatCount="indefinite"/>
  </circle>
  <circle cx="111" cy="111" r="7" fill="#ffffff" opacity="0.35"/>
</svg>
